<svg aria-hidden="true" style="position: absolute; width: 0; height: 0; overflow: hidden;" version="1.1" xmlns="http://www.w3.org/2000/svg" xmlns:xlink="http://www.w3.org/1999/xlink">
    <defs>
        <symbol id="play_arrow" viewBox="0 0 24 24">
            <path d="M0 0h24v24H0z" fill="none"/><path d="M8 5v14l11-7z"/>
        </symbol>
        <symbol id="skip_next" viewBox="0 0 24 24">
            <path d="M0 0h24v24H0z" fill="none"/><path d="M6 18l8.5-6L6 6v12zM16 6v12h2V6h-2z"/>
        </symbol>
        <symbol id="skip_previous" viewBox="0 0 24 24">
            <path d="M0 0h24v24H0z" fill="none"/><path d="M6 6h2v12H6zm3.5 6l8.5 6V6z"/>
        </symbol>
        <symbol id="playlist_add" viewBox="0 0 24 24">
            <path d="M3 13h2v-2H3v2zm0 4h2v-2H3v2zm0-8h2V7H3v2zm4 4h14v-2H7v2zm0 4h14v-2H7v2zM7 7v2h14V7H7z"/>
        </symbol>
        <symbol id="pause" viewBox="0 0 24 24">
            <path d="M0 0h24v24H0z" fill="none"/><path d="M6 19h4V5H6v14zm8-14v14h4V5h-4z"/>
        </symbol>
    </defs>
</svg>
